<svg width="128" height="128" viewBox="0 0 128 128" fill="none" xmlns="http://www.w3.org/2000/svg">
  <defs>
    <linearGradient id="grad" x1="0" x2="1" y1="0" y2="1">
      <stop offset="0%" stop-color="#2563EB"/>
      <stop offset="100%" stop-color="#10B981"/>
    </linearGradient>
  </defs>
  <g>
    <path d="M64 10C45 20 29 20 16 20v34c0 26 21 49 48 54c27-5 48-28 48-54V20c-13 0-29 0-48-10z" fill="#0f172a"/>
    <path d="M64 18C48 26 34 26 24 26v28c0 22 17 41 40 46c23-5 40-24 40-46V26c-10 0-24 0-40-8z" fill="#1f2937"/>
    <circle cx="64" cy="62" r="28" fill="#0ea5e9" opacity="0.15"/>
    <rect x="58" y="42" width="12" height="40" rx="2" fill="#fff"/>
    <rect x="44" y="56" width="40" height="12" rx="2" fill="#fff"/>
    <path d="M32 84c20-30 44-18 64-40" stroke="url(#grad)" stroke-width="6" stroke-linecap="round"/>
    <path d="M92 36l10 3l-5 9" fill="none" stroke="#f59e0b" stroke-width="4" stroke-linecap="round" stroke-linejoin="round"/>
  </g>
</svg>


